<svg t="1611480398419" class="icon" viewBox="0 0 1024 1024" version="1.1" xmlns="http://www.w3.org/2000/svg" p-id="8078"
     width="128" height="128">
    <path d="M512 1013.44A501.44 501.44 0 1 1 1013.44 512 501.76 501.76 0 0 1 512 1013.44z" fill="#E99831"
          p-id="8079"></path>
    <path d="M512 21.44A490.56 490.56 0 1 1 21.44 512 490.56 490.56 0 0 1 512 21.44M512 0a512 512 0 1 0 512 512A512 512 0 0 0 512 0z"
          fill="#373838" p-id="8080"></path>
    <path d="M516.8 512l-184.96 457.28a427.52 427.52 0 0 0 48.96 15.36 559.68 559.68 0 0 0 131.52 17.92A490.56 490.56 0 0 0 1002.56 512H516.8z"
          fill="#EEB043" p-id="8081"></path>
    <path d="M316.8 892.8a10.56 10.56 0 0 1-5.12 0A428.48 428.48 0 0 1 82.88 512a10.56 10.56 0 0 1 21.44 0 407.04 407.04 0 0 0 217.6 360.64 10.56 10.56 0 0 1-5.12 20.16zM512 941.12a10.56 10.56 0 0 1 0-21.44A407.36 407.36 0 0 0 716.8 864a10.56 10.56 0 1 1 10.88 18.56A428.8 428.8 0 0 1 512 941.12zM838.72 261.44A10.56 10.56 0 0 1 832 256a406.72 406.72 0 0 0-320-151.68 10.56 10.56 0 0 1 0-21.44 428.16 428.16 0 0 1 335.04 160 10.56 10.56 0 0 1-8.32 17.28zM512 528.64a10.56 10.56 0 0 1-7.68-3.2L352 371.52a10.56 10.56 0 1 1 15.04-15.04l153.92 153.92a10.56 10.56 0 0 1-7.68 18.24z"
          fill="#373838" p-id="8082"></path>
    <path d="M512 528.64a10.56 10.56 0 0 1 0-21.44l378.88-5.76a11.2 11.2 0 0 1 10.88 10.56 10.56 10.56 0 0 1-10.56 10.88L512 528.64zM133.44 522.56H93.44a10.56 10.56 0 1 1 0-21.44h40a10.56 10.56 0 1 1 0 21.44z"
          fill="#373838" p-id="8083"></path>
</svg>